<svg width="17" height="19" viewBox="0 0 17 19" fill="none" xmlns="http://www.w3.org/2000/svg">
  <path d="M11.6667 4.74998V4.11665C11.6667 3.2299 11.6667 2.78652 11.4941 2.44783C11.3423 2.1499 11.1001 1.90769 10.8022 1.75589C10.4635 1.58331 10.0201 1.58331 9.13333 1.58331H7.86667C6.97992 1.58331 6.53654 1.58331 6.19785 1.75589C5.89993 1.90769 5.65771 2.1499 5.50591 2.44783C5.33333 2.78652 5.33333 3.2299 5.33333 4.11665V4.74998M6.91667 9.10415V13.0625M10.0833 9.10415V13.0625M1.375 4.74998H15.625M14.0417 4.74998V13.6166C14.0417 14.9468 14.0417 15.6118 13.7828 16.1199C13.5551 16.5668 13.1918 16.9301 12.7449 17.1578C12.2369 17.4166 11.5718 17.4166 10.2417 17.4166H6.75833C5.42821 17.4166 4.76315 17.4166 4.25511 17.1578C3.80822 16.9301 3.44489 16.5668 3.21719 16.1199C2.95833 15.6118 2.95833 14.9468 2.95833 13.6166V4.74998" stroke="#4B5563" stroke-width="1.5" stroke-linecap="round" stroke-linejoin="round" />
</svg>